<svg width="100" height="100" viewBox="0 0 100 100" fill="none" xmlns="http://www.w3.org/2000/svg">
<path d="M48.25 5.875H50.125L51.125 6.25L51.625 6.875L51.75 7.25V8.125L51.375 8.875L50.75 9.375L46 9.75L42.375 10.25L39.25 11L36 12L34.375 12.625L32.5 13.5L29.875 14.875L27.875 16.125L25.875 17.5L24.625 18.5L23 19.875L22.125 20.75H21.875V21L21.375 21.5H21.125L20.875 22L19.375 23.5L18 25.25L16.5 27.25L15 29.75L13.5 32.625L12.375 35.125L11.5 37.625L10.625 40.625L10.125 43L9.625 47.25V52.75L10.125 56.75L10.75 59.75L11.5 62.375L12.375 64.875L14 68.5L15.5 71.125L16.75 73L18.5 75.375L20.125 77.25L23.375 80.5L24.625 81.5L26.25 82.75L27.875 83.875L30.625 85.5L33.625 87L36.875 88.25L39.75 89.125L42.625 89.75L45.25 90.125L48.5 90.375H51.625L54.625 90.125L57.875 89.625L61 88.875L65.125 87.5L68.375 86L71.25 84.375L74 82.5L75.25 81.5L77.25 79.875L80 77.125L81.125 75.75L82.375 74.25L83.875 72.125L85.25 69.875L86.25 67.875L87.5 65.125L88.375 62.75L89.25 59.75L89.875 56.625L90.25 53.625L90.375 51.75V48.25L90.125 45.25L89.625 42L88.875 38.875L87.75 35.5L86.375 32.25L85.125 29.875L83.5 27.25L82.25 25.5L81.25 24.25L79 21.75L77.5 20.25L76.5 19.375L74.5 17.75L72.875 16.625L70.5 15.125L67.625 13.625L65 12.25L64.5 11.625L64.375 10.75L64.75 9.875L65.375 9.25L65.625 9.125H66.5L68.5 9.875L70.875 11.125L73.125 12.375L75 13.625L77 15.125L78.375 16.25L80 17.625L82.75 20.375L83.875 21.75L85.125 23.25L86.875 25.75L88.375 28.25L89.75 30.75L91.125 34L92.5 38.125L93.25 41.25L93.875 45.375L94 46.875V53L93.625 56.375L93.25 58.625L92.5 61.875L91.25 65.625L89.875 68.875L88.375 71.75L87.375 73.375L86.375 74.875L85.125 76.625L83.5 78.625L82 80.25L81.125 81.25L80.5 81.75L79.875 82.375L78.25 83.875L76.25 85.375L74 87L71 88.75L67.75 90.375L64.5 91.625L61.25 92.625L57.875 93.375L54.375 93.875L52.75 94H47.25L43.5 93.625L39.625 92.875L36.5 92L33.375 90.875L30.375 89.5L28.25 88.375L25.875 86.875L23.875 85.5L22.125 84.125L20.375 82.625L18.875 81.25L18 80.375L17.125 79.375L15.625 77.625L13.75 75.125L12.375 73L10.875 70.375L9.25 67L8.125 63.875L7.375 61.5L6.75 58.75L6.25 55.875L5.875 51.75V48.375L6.125 45.125L6.625 41.75L7.375 38.5L8.25 35.625L9.625 32.125L10.625 30L11.75 28L12.75 26.375L13.75 24.875L14.75 23.5L16.125 21.75L17.375 20.375L18.25 19.375L20.25 17.375L21.25 16.5L23.25 14.875L25.5 13.25L28.625 11.375L31 10.125L33.5 9L36 8.125L38.375 7.375L41.625 6.625L44.875 6.125L48.25 5.875Z" fill="#E17100"/>
<path d="M33.375 57H78.875L79.625 57.5L80 58.25V61L79.625 63.5L78.875 66.375L77.75 69.125L76.375 71.625L74.875 73.625L73.5 75.25L72.25 76.5L70.875 77.625L69.125 78.875L67.25 80L64.375 81.25L61.375 82.125L59.25 82.5L58.125 82.625H54L51.375 82.25L48.625 81.5L46.625 80.75L43.875 79.375L41.75 77.875L40.375 76.75L37.75 74.125L36.25 72.125L34.875 69.75L33.875 67.625L33 65L32.375 62L32.25 61V58.25L32.625 57.625L33.375 57ZM35.75 60.5L36.25 63.25L37 65.875L37.875 67.75L39 69.875L40.25 71.5L41.375 72.875L42.375 73.875L43.625 74.875L45.25 76L47.75 77.375L49.625 78.125L52.75 78.875L55 79.125H57.5L60.125 78.75L62.5 78.125L64.375 77.375L66.375 76.375L67.75 75.5L69.375 74.25L70.875 72.875L72 71.625L73.25 69.875L74.375 67.875L75.25 65.875L76 63.375L76.375 61.625V60.5H35.75Z" fill="#E17100"/>
<path d="M41.5 29.375H43.625L45.125 29.75L47 30.75L48.25 31.875L49.25 33.25L50 35.25L50.125 35.875V37.25L49.75 38L49.25 38.5L48.875 38.625H47.625L46.875 38L46.5 37.125L46.25 35.625L45.75 34.625L45.25 34L44.25 33.375L43.5 33.125L42.375 33L41.125 33.25L40.25 33.75H40V34L39.375 34.625L38.875 35.75L38.5 37.625L38.125 38.25L37.375 38.625H36.25L35.5 38.125L35 37.125V36L35.5 34.125L36.125 32.875L37.125 31.625L38.25 30.625L40.25 29.625L41.5 29.375Z" fill="#E17100"/>
<path d="M70.5 29.375H72.625L74.5 29.875L75.875 30.625L77.125 31.75L78 32.75L78.875 34.625L79.125 35.625V37.375L78.625 38.25L77.875 38.625H76.75L76.125 38.25L75.75 37.75L75.25 35.5L74.625 34.375L73.625 33.5L72.625 33.125L71.375 33L70.125 33.25L69 34L68.25 34.875L67.875 35.875L67.5 37.875L66.75 38.5L66.375 38.625H65.375L64.5 38.125L64.125 37.5V35.625L64.625 34L65.625 32.25L66.5 31.25L67.75 30.375L69 29.75L70.5 29.375Z" fill="#E17100"/>
<path d="M59.625 7.25H60.75L61.5 7.625L62 8.375V9.625L61.625 10.25L60.375 10.875L59.625 10.75L59.125 10.5V10.25H58.875L58.5 9.5V8.375L59 7.625L59.625 7.25Z" fill="#E17100"/>
</svg>
