<svg width="100" height="100" viewBox="0 0 100 100" fill="none" xmlns="http://www.w3.org/2000/svg">
<path d="M48.375 5.875H50.125L51.125 6.25L51.625 6.875L51.75 7.25V8.125L51.375 8.875L50.75 9.375L46 9.75L42.375 10.25L39.25 11L36.75 11.75L34.375 12.625L32.5 13.5L29.875 14.875L27.875 16.125L25.875 17.5L24.625 18.5L23 19.875L22.125 20.75H21.875V21L21.375 21.5H21.125L20.875 22L19.375 23.5L18 25.25L16.5 27.25L15 29.75L13.5 32.625L12.375 35.125L11.5 37.625L10.625 40.625L10.125 43L9.625 47.25V52.75L10.125 56.75L10.75 59.75L11.5 62.375L12.375 64.875L14 68.5L15.5 71.125L16.75 73L18.5 75.375L20.125 77.25L23.375 80.5L24.625 81.5L26.25 82.75L27.875 83.875L30.125 85.25L32.125 86.25L34.25 87.25L37.25 88.375L40.25 89.25L43.5 89.875L46.375 90.25L48.5 90.375H51.625L54.625 90.125L57.25 89.75L60.625 89L64.75 87.625L68.125 86.125L70.875 84.625L72.375 83.625L74.5 82.125L76.625 80.375L77.875 79.25L80 77.125L81.125 75.75L82.625 73.875L84.125 71.75L85.75 68.875L87.125 66L88.25 63.125L89.25 59.625L89.875 56.5L90.25 53.625L90.375 51.75V48.25L90.125 45.25L89.625 42L89 39.375L88.125 36.5L86.75 33.125L85.75 31L84.125 28.25L82.5 25.875L81.125 24.125L78.375 21.125L77.375 20.25L76.25 19.125L74.625 17.875L72.875 16.625L70.5 15.125L67.625 13.625L65.25 12.5L64.375 11.875L64 11.125L64.25 10L64.875 9.25L65.375 9L66.625 9.125L68.5 9.875L70.875 11.125L73.125 12.375L75 13.625L77 15.125L78.375 16.25L80 17.625L82.75 20.375L83.875 21.75L85.125 23.25L86.875 25.75L88.375 28.25L89.75 30.75L91.125 34L92.5 38.125L93.25 41.25L93.875 45.375L94 46.875V53L93.75 55.625L93.25 58.625L92.5 61.875L91.25 65.625L89.875 68.875L88.375 71.75L87.375 73.375L86.375 74.875L85.125 76.625L83.5 78.625L82.125 80.125L81.25 81.125L80.625 81.75H80.375V82L79.375 82.875L77.75 84.25L76.125 85.5L73.75 87.125L71.25 88.625L67.75 90.375L64.5 91.625L61.25 92.625L57.875 93.375L54.375 93.875L52.75 94H47.25L43.5 93.625L39.625 92.875L36.5 92L33.75 91L30.625 89.625L28.25 88.375L25.875 86.875L23.875 85.5L22.125 84.125L20.375 82.625L18.875 81.25L17.875 80.25L16.75 78.875L15.625 77.625L13.75 75.125L12.375 73L10.875 70.375L9.25 67L8.125 63.875L7.375 61.5L6.75 58.75L6.25 55.875L5.875 51.75V48.375L6.125 45.125L6.625 41.75L7.375 38.5L8.25 35.625L9.625 32.125L10.625 30L11.75 28L12.75 26.375L13.75 24.875L14.75 23.5L16.125 21.75L17.375 20.375L18.25 19.375L20.25 17.375L21.25 16.5L23.25 14.875L25.5 13.25L28.625 11.375L31 10.125L33.5 9L36 8.125L38.375 7.375L41.625 6.625L44.875 6.125L48.375 5.875Z" fill="#259400"/>
<path d="M47.625 65.25H48.5L49.25 65.625L50.875 67.75L51.875 68.75L53.375 69.75L55 70.375L56.25 70.625H58.875L60.875 70.125L62.375 69.375L63.5 68.5L64.5 67.625L66 65.625L66.625 65.25H67.5L68.25 65.625L68.875 66.375L69 67.375L67.875 69.25L66.5 70.75L65.25 71.875L63.375 73L61.625 73.75L59.75 74.25L59 74.375H56L53.875 73.875L52.25 73.25L50.5 72.25L49.25 71.25L47.75 69.75L46.5 67.875L46.375 67.5V66.5L46.75 65.875L47.25 65.375L47.625 65.25Z" fill="#259400"/>
<path d="M41.5 29.375H43.625L45.125 29.75L47 30.75L48.25 31.875L49.25 33.25L50 35.25L50.125 35.875V37.25L49.75 38L49.25 38.5L48.875 38.625H47.625L46.875 38L46.5 37.125L46.25 35.625L45.625 34.5L45 33.875L44.25 33.375L43.5 33.125L42.375 33L41.125 33.25L40.25 33.75H40V34L39.375 34.625L38.875 35.75L38.5 37.625L38.125 38.25L37.375 38.625H36.25L35.5 38.125L35 37.125V36L35.5 34.125L36.125 32.875L37.125 31.625L38.25 30.625L40.25 29.625L41.5 29.375Z" fill="#259400"/>
<path d="M70.5 29.375H72.625L74.5 29.875L75.875 30.625L77.125 31.75L78 32.75L78.875 34.625L79.125 35.625V37.375L78.625 38.25L77.875 38.625H76.75L76.125 38.25L75.75 37.75L75.25 35.5L74.625 34.375L73.625 33.5L72.625 33.125L71.375 33L70.125 33.25L69 34L68.25 34.875L67.875 35.875L67.5 37.875L66.75 38.5L66.375 38.625H65.375L64.5 38.125L64.125 37.5V35.625L64.625 34L65.625 32.25L66.5 31.25L67.75 30.375L69 29.75L70.5 29.375Z" fill="#259400"/>
<path d="M59.5 7.125H60.375L61.125 7.5L61.625 8.125L61.75 8.5V9.375L61.25 10.125L60.625 10.625H59.375L58.375 9.875L58.125 9.125L58.25 8.375L58.75 7.5L59.5 7.125Z" fill="#259400"/>
</svg>
