<svg width="100" height="100" viewBox="0 0 100 100" fill="none" xmlns="http://www.w3.org/2000/svg">
<path d="M49.25 1.375L55.25 1.5L59 1.75L63.75 2.25L68.375 3L72.375 3.875L76.125 5L79.375 6.25L82.125 7.625L84 8.875L85.25 9.875L86.5 11.25L87.5 13.25L87.75 14.125L87.875 15.375L87.5 17.25L86.75 18.625L85.875 19.75L84.625 21L82.625 22.375L80.625 23.5L79.125 24.125H78.875L79.75 25.125L81 26.625L82.625 28.875L84.5 32L86 35.125L87 37.75L87.875 40.75L88.5 43.625L88.875 46.25L89 47.625V53.375L88.75 55.75L88.25 58.625L87.5 61.625L86.75 63.875L85.5 66.875L83.875 70L82.375 72.375L80.75 74.625L79.375 76.25L77.375 78.375L75.375 80.25L73.125 82L71.125 83.375L69 84.625L66.625 85.875L63.625 87.125L61 88L58 88.75L54 89.375L52.375 89.5H47.5L44 89.125L40.75 88.5L37.25 87.5L33.875 86.125L30.875 84.625L28.5 83.125L26.375 81.625L25 80.5L22.5 78.25L21.125 76.875L20 75.5L18.625 73.875L16.875 71.25L15.25 68.5L14 65.875L12.875 62.875L12 59.875L11.375 56.75L11 53.75L10.875 52V49L11.125 45.875L11.75 42.125L12.625 38.75L13.625 36L14.75 33.5L16.25 30.625L17.625 28.5L19 26.625L20.5 24.75H20.75V24.5H21L20.875 24.125L18.375 22.875L16.625 21.75L15.375 20.75L14 19.375L13 17.75L12.625 16.875L12.5 16.25V14.125L13.125 12.25L14.375 10.5L15.25 9.625L17.25 8.125L19.5 6.875L22.375 5.625L26.5 4.25L30 3.375L34 2.625L38.5 2L42.625 1.625L49.25 1.375ZM45.5 4.625L41.5 4.875L36.75 5.375L32.25 6.125L28.875 6.875L25 8L21.875 9.25L19 10.75L17.25 12.125L16.375 13L15.75 14.25L15.625 14.75V15.75L16.125 16.875L17.125 18.125L18.375 19.125L20.625 20.5L23.5 21.75L26.875 22.875L30.25 23.75L34.625 24.625L39.375 25.25L43.875 25.625L47 25.75H53.375L58 25.5L63 25L68.375 24.125L72 23.25L75.25 22.25L77.625 21.375L80.5 20L82.375 18.75L83.75 17.5L84.375 16.5L84.625 15.625V14.75L84.125 13.5L83.25 12.375L82.25 11.5L80.375 10.25L77.75 9L74.75 7.875L71.25 6.875L68.5 6.25L65.875 5.75L61.375 5.125L56.875 4.75L54.5 4.625H45.5ZM24.25 25.375L22.75 27L21.5 28.5L19.875 30.75L18.5 33.125L17.5 35L16.5 37.375L15.75 39.375L14.875 42.75L14.5 44.5L14.125 47.75V53.125L14.625 57L15.25 59.875L16.5 63.625L17.875 66.625L19 68.75L20.125 70.5L21.5 72.375L23.125 74.375L26.5 77.75L28.625 79.375L30.75 80.875L33.375 82.375L36 83.625L38.625 84.625L41.25 85.375L44.5 86L48.125 86.375H52.125L55.5 86L59.125 85.25L61.875 84.375L64.125 83.5L67.25 82L69.375 80.75L71.5 79.25L73.625 77.5L74.875 76.375L76.625 74.625V74.375L77 74.25L78.375 72.5L79.125 71.5L80.625 69.25L81.5 67.875L82.5 65.875L83.5 63.5L84.625 60.125L85.375 56.875L85.75 54.125L85.875 52.625V48.25L85.5 44.875L84.75 41.25L83.75 38.125L82.75 35.625L81.75 33.625L80.5 31.375L78.75 28.875L77.625 27.5L76.5 26.25L75.875 25.5L74.75 25.625L72 26.375L68.125 27.25L63.25 28L60 28.375L54.5 28.75H45.375L41.5 28.5L36.75 28L33.5 27.5L28.625 26.5L24.5 25.375H24.25Z" fill="#8D41FF"/>
<path d="M46.5 7H53.875L58.125 7.25L62.75 7.75L67.25 8.5L70.25 9.25L72.875 10.125L74.875 11.125L76 11.875L77 12.75L77.625 13.875L77.875 14.625V15.5L77.5 16.75L76.5 18L74.875 19.125L72.75 20.125L70.125 21L66.375 21.875L62.5 22.5L57.5 23L53 23.25H46.875L41 22.875L36.75 22.375L32.5 21.625L29.25 20.75L26.875 19.875L24.875 18.875L23.5 17.75L22.75 16.625L22.375 15.375L22.5 14.25L23 13.125L23.625 12.375L25 11.25L27 10.25L30.375 9.125L33.625 8.375L38.25 7.625L43.625 7.125L46.5 7ZM47.375 10.125L42.5 10.375L37.75 10.875L33.875 11.5L30.875 12.25L28.625 13L26.625 14L25.875 14.5L25.5 15.125L26.25 16L28.125 17L30.5 17.875L34.25 18.75L38 19.375L43.125 19.875L48.75 20.125H51.625L57.25 19.875L62.25 19.375L66.625 18.625L69.625 17.875L72.125 17L73.75 16.125L74.625 15.375L74.5 14.75L73.625 14L71.25 12.875L68.875 12.125L65.5 11.375L61.375 10.75L57.625 10.375L52.875 10.125H47.375Z" fill="#8D41FF"/>
<path d="M46.875 11.5H53.125L56.375 11.875L58.625 12.375L59.25 12.75L59.75 13.5V14.25L59.25 15L58.625 15.5L56.625 15.25L54 14.875L52.5 14.75H47L43.875 15.125L40.625 15.875L37.5 16.75L36.875 16.625L36.125 16L36 15.75V14.5L36.5 13.875L38.25 13.125L41.625 12.25L45.375 11.625L46.875 11.5Z" fill="#8D41FF"/>
<path d="M47.875 64H48.75L49.5 64.5L50.625 66L51 66.375V66.625L51.5 66.875L52.375 67.625L54 68.375L55.375 68.75H58L59.5 68.375L61 67.625L62.125 66.75L63.125 65.75L64.25 64.25L64.75 64L65.875 64.125L66.625 64.75L66.875 65.75L66.125 67.125L65.125 68.375L64 69.5L62.75 70.375L60.75 71.375L59.125 71.875L57.5 72.125H55.75L53.625 71.75L51.75 71L50.125 70L48.875 68.875L48 68L46.875 66.25L46.75 66V65.125L47.25 64.375L47.875 64Z" fill="#8D41FF"/>
<path d="M42.25 35.625H44.5L46.125 36.125L47.625 37L48.75 38.125L49.5 39.375L50 40.75L50.125 41.375V42.5L49.75 43.25L49 43.875H48.125L47.375 43.375L47 43L46.625 41.125L46.125 40.125L45.5 39.5L44.625 39L44 38.875H42.875L41.625 39.25L40.75 40L40.125 41.25L39.875 42.875L39.375 43.5L38.75 43.875H37.875L37.25 43.5L36.75 42.75V41.25L37.25 39.5L38.25 37.875H38.5L38.75 37.375L40.125 36.375L41.625 35.75L42.25 35.625Z" fill="#8D41FF"/>
<path d="M68 35.625H70.25L71.875 36.125L73.375 37L74.5 38.125L75.25 39.375L75.875 41.25V42.625L75.375 43.5L74.75 43.875H73.875L73.125 43.375L72.75 43L72.375 41L71.75 40L70.875 39.25L69.875 38.875H68.5L67.375 39.25L66.5 40L66 41L65.5 43.125L64.875 43.625L64.5 43.875L63.375 43.75L62.75 43.125L62.5 42.75V41.125L63.125 39.25L64.125 37.875L65.125 36.875L66.375 36.125L68 35.625Z" fill="#8D41FF"/>
<path d="M63.125 14L64.25 14.125L65 14.75L65.125 15V16.125L64.375 17L64.125 17.125H63L62.25 16.5L62 16V15L62.625 14.25L63.125 14Z" fill="#8D41FF"/>
</svg>
