<svg width="100" height="100" viewBox="0 0 100 100" fill="none" xmlns="http://www.w3.org/2000/svg">
<path d="M48.375 5.875H50.125L51.125 6.25L51.625 6.875L51.75 7.25V8.125L51.375 8.875L50.75 9.375L45.875 9.75L42.375 10.25L39.125 11L35 12.375L32 13.75L29.875 14.875L27.875 16.125L25.875 17.5L24.625 18.5L23 19.875L22.125 20.75H21.875V21L21.375 21.5H21.125L20.875 22L19.375 23.5L18 25.25L16.5 27.25L15 29.75L13.5 32.625L12.375 35.125L11.5 37.625L10.625 40.625L10.125 43L9.625 47.25V52.75L10.125 56.75L10.75 59.75L11.5 62.375L12.375 64.875L14 68.5L15.5 71.125L16.75 73L18.5 75.375L20.125 77.25L23.375 80.5L24.625 81.5L26.25 82.75L27.875 83.875L30.625 85.5L33.625 87L36.875 88.25L40.25 89.25L43.5 89.875L46.375 90.25L48.5 90.375H51.625L54.625 90.125L57.875 89.625L61 88.875L65.125 87.5L68.375 86L71.25 84.375L74 82.5L75.25 81.5L76.625 80.375L77.875 79.25L80 77.125L81.125 75.75L82.375 74.25L83.875 72.125L85.25 69.875L86.25 67.875L87.5 65.125L88.375 62.75L89.375 59.125L89.875 56.5L90.25 53.625L90.375 51.625V48.375L90.125 45.25L89.625 42L88.875 38.875L87.75 35.5L86.375 32.25L85.25 30.125L83.875 27.875L82.5 25.875L81.125 24.125L79.75 22.625L78.875 21.625L77.875 20.75L76.25 19.125L74.125 17.5L71.125 15.5L69.125 14.375L66.75 13.125L66 12.25L65.875 12V11.125L66.5 10.125L67.375 9.75L68.375 9.875L70.5 10.875L73.5 12.625L75 13.625L77 15.125L78.375 16.25L80.125 17.75L82.75 20.375L83.875 21.75L85.125 23.25L86.875 25.75L88.375 28.25L89.5 30.25L91.125 34L92.5 38.125L93.25 41.25L93.875 45.375L94 46.875V53L93.75 55.625L93.25 58.625L92.5 61.875L91.25 65.625L89.875 68.875L88.375 71.75L87.375 73.375L86.375 74.875L85.125 76.625L83.5 78.625L82 80.25L81.125 81.25L79.625 82.625L78.25 83.875L76.25 85.375L74 87L71 88.75L68 90.25L64.875 91.5L61.75 92.5L58.5 93.25L54.375 93.875L52.75 94H47.25L43.5 93.625L39.625 92.875L36.5 92L33.375 90.875L30.125 89.375L28.25 88.375L25.875 86.875L23.875 85.5L22.125 84.125L20.375 82.625L18.875 81.25L17.875 80.25L16.75 78.875L15.625 77.625L13.75 75.125L12.375 73L10.875 70.375L9.25 67L8.125 63.875L7.375 61.5L6.75 58.75L6.25 55.875L5.875 51.75V48.375L6.125 45.125L6.625 41.75L7.375 38.5L8.25 35.625L9.625 32.125L10.625 30L11.75 28L12.75 26.375L13.75 24.875L14.75 23.5L16.125 21.75L17.375 20.375L18.25 19.375L20.25 17.375L21.25 16.5L23.25 14.875L25.5 13.25L28.625 11.375L31 10.125L33.5 9L38 7.5L41.125 6.75L44.875 6.125L48.375 5.875Z" fill="#585960"/>
<path d="M63.375 67H64.625L65.375 67.5L67.125 69.25L67.625 69L68.75 67.875L69.5 67.375H70.625L71.375 67.875L72.625 69L74.25 70.625L74.75 71.5V72.5L74.25 73.375L73.25 73.875L72.375 73.75L71.25 72.875L70.625 72.125L70 71.875L68.625 73.25L67.75 73.75H66.75L65.5 72.75L64.125 71.375L63.25 72.125L61.75 73.625L60.75 74.25L59.875 74.125L59.125 73.625L58.25 72.875L57.375 71.875L56.75 71.75L54.75 73.75L54 74.125H53.25L52 73.375L51.125 72.5L50.75 72.375L49.25 73.875L48 74.25L47.125 73.875L46.5 73.25L46.375 72.875V72L47.125 70.875L49.625 68.375L50.375 67.875H51.5L52.25 68.375L53 69L53.5 69.625H53.875L54.75 68.625L55.75 67.625L56.75 67.125L57.5 67.25L58.25 67.625L60.25 69.625L60.75 69.5L63 67.25L63.375 67Z" fill="#585960"/>
<path d="M38.25 41.375H39.375L44 43.375L49.625 45.875L50.875 46.625L51.375 47.5L51.25 48.5L50.5 49.375L46.875 51L41.75 53.25L39 54.375L38.375 54.25L37.625 53.75L37.125 53L37 52.375L37.375 51.375L38 50.875L41.25 49.375L44.5 48L44.875 47.75L41.625 46.375L38 44.75L37.375 44.25L37 43.375L37.125 42.625L37.5 41.875L38.25 41.375Z" fill="#585960"/>
<path d="M80.5 41.375H81.625L82.375 41.875L82.75 42.5L82.875 43.5L82.5 44.25L81.875 44.75L76.875 47L75.25 47.625H75V47.875L75.75 48.125L79.375 49.75L81.875 50.875L82.625 51.5L82.875 52.125L82.75 53L82.25 53.875L81.5 54.25H80.625L78.5 53.375L70.75 50L69.25 49.25L68.75 48.625L68.625 48.25V47.375L69.125 46.5L71.125 45.5L74.75 43.875L77.875 42.5L80.5 41.375Z" fill="#585960"/>
<path d="M61.375 7.625L62.5 7.75L63.375 8.5L63.625 9.125L63.5 10.125L62.75 11L62.125 11.25L61.125 11.125L60.25 10.375L60 9.75V9L60.625 8L61.375 7.625Z" fill="#585960"/>
</svg>
