<svg width="100" height="100" viewBox="0 0 100 100" fill="none" xmlns="http://www.w3.org/2000/svg">
<path d="M47.25 6.25H52.875L56.75 6.625L60.625 7.375L63.625 8.25L66.125 9.125L68.75 10.25L71.25 11.5L73.375 12.75L75.25 14L77.625 15.75L78.75 16.75L79.75 17.625L81.625 19.375L83.5 21.375L84.875 23.125L86.125 24.75L87.5 26.875L88.75 29L90.25 32L91.5 35.125L92.375 37.75L93.25 41.375L93.75 44.375L94 47V53L93.75 55.5L93.25 58.625L92.5 61.75L91.75 64.25L90.5 67.375L89.75 69L88.75 71L87.25 73.5L85.875 75.5L84.75 77L83.25 78.75L82.375 79.75L79.25 82.875L77.5 84.25L76.25 85.25L74.25 86.625L72.625 87.625L70.75 88.75L67.875 90.125L65.25 91.125L62.625 92L59.75 92.75L56.25 93.375L52.25 93.75H48L43.375 93.25L40.25 92.625L37 91.75L34.5 90.875L31.375 89.5L28.875 88.25L26.625 86.875L24.5 85.375L22.875 84.125L21.125 82.625L19.625 81.25L18.125 79.75L17 78.375L15.875 77.125L14.25 74.875L12.875 72.75L11.375 70.125L9.875 67L8.5 63.25L7.375 59L6.75 55.125L6.625 53.375L7.125 52.5L7.75 52H9.125L9.875 52.5L10.25 53.5L10.875 57.625L11.625 60.875L12.875 64.625L14.125 67.5L15.5 70.125L17 72.5L18.75 74.875L20.25 76.625L21.625 78.125L23.125 79.625L24.125 80.5L26.125 82.125L29.125 84.125L31.25 85.375L34.625 87L38 88.25L41.375 89.125L44 89.625L47.125 90H53.5L56.625 89.625L60.25 88.875L63.5 87.875L66.125 86.875L69.5 85.25L71.625 84L73.125 83L75.5 81.25L76.75 80.125L78.125 79L79 78.125L79.875 77.125L81.125 75.75L82.125 74.5L83.625 72.375L85.25 69.75L86.75 66.875L88.125 63.5L89.25 59.75L90 55.875L90.25 53.875L90.375 52V47.875L90.125 45L89.625 42L88.875 38.875L87.75 35.5L86.5 32.625L85 29.75L83.5 27.375L82.125 25.5L80.5 23.5L79.125 22L77.25 20.125L74.125 17.625L70.875 15.5L68.125 14L66 13L62.625 11.75L58.875 10.75L56.75 10.375L54 10L51.875 9.875H48.25L45.25 10.125L41.625 10.75L38.625 11.5L35.375 12.625L32.375 14L30 15.25L28.25 16.375L26.125 17.875L24.875 18.875L23.125 20.375L22.75 20.625L23 21.25L24.125 23.375L25.125 25.375L26.125 27.625L27 30.375L27.125 31.25V33L26.75 35L25.875 37.125L25 38.5L23.625 40L21.875 41.25L19.875 42.125L18.375 42.5L17.375 42.625H15.5L13.5 42.25L11.875 41.625L10.25 40.625L9 39.5L8 38.375L7 36.75L6.375 35.25L6 33.75L5.875 31.875L6.125 30.125L7.125 27.125L9.125 23L10.75 20.125L12.25 17.625L13.125 16.25L14.625 14L15.625 12.875L16.125 12.625H16.875L17.875 13.25L18.875 14.625L19.75 16L20.75 17.5L21.75 16.75L23.375 15.375L25.625 13.75L27.75 12.375L30.625 10.75L34 9.25L36.75 8.25L39.875 7.375L43.625 6.625L47.25 6.25ZM16.5 17.625L15.625 18.875L13.75 22L12.25 24.625L10.75 27.625L10 29.5L9.5 31.125V33.25L10 34.875L10.875 36.375L12.25 37.75L14.25 38.75L15.125 39L17.125 39.125L18.875 38.75L20.375 38L21.625 37L22.5 35.875L23.25 34.375L23.5 33.5L23.625 31.75L23.125 29.75L22.125 27.25L20.75 24.5L19.625 22.5L17.75 19.375L16.625 17.625H16.5Z" fill="#00ABDF"/>
<path d="M56.25 65.5H60.25L62.875 65.75L65.25 66.125L68.375 67L70.75 68L72.75 69.125L74 70.25L74.25 71.375L73.75 72.375L73 72.875L72.125 73L71.125 72.5L69.375 71.375L68 70.75L66.125 70.125L63.25 69.5L61 69.25L59.125 69.125H57L54.25 69.375L52 69.75L49.5 70.375L47.625 71.125L46.125 71.875L44.75 72.75L43.75 73L42.75 72.5L42.125 71.5L42.25 70.5L42.625 69.875L43.875 69L45.875 67.875L48.5 66.875L51.375 66.125L54.5 65.625L56.25 65.5Z" fill="#00ABDF"/>
<path d="M42.625 34.25H45.375L47 34.625L49 35.625L50.25 36.625L51.5 37.875L52.25 39L52.625 39.875L52.75 40.625L52.375 41.5L51.75 42L51.375 42.125H50.25L49.375 41.375L48.5 40L47.625 39.125L46.375 38.375L45.5 38L44.875 37.875H43.125L41.5 38.375L40.125 39.375L39.25 40.25L38.5 41.375L37.625 42.125H36.375L35.375 41.25L35.25 40.875V40L35.875 38.75L37.25 37L38.625 35.875L40.375 34.875L41.875 34.375L42.625 34.25Z" fill="#00ABDF"/>
<path d="M71 34.25H73.875L75.375 34.625L77.375 35.625L79 36.875L80 38L81 39.75L81.125 40V40.875L80.625 41.625L80.25 42L79.875 42.125H78.625L78 41.625L77 40.125L76.5 39.5L75.375 38.625L73.875 38L73.25 37.875H71.5L70.125 38.25L68.625 39.25L67.5 40.5L66.625 41.75L66 42.125H65L64.25 41.75V41.5H64L63.625 40.75L63.75 39.875L64.25 38.875L65.5 37.25L66.875 36L68.875 34.875L70.375 34.375L71 34.25Z" fill="#00ABDF"/>
<path d="M8 46.125L9.125 46.25L9.75 46.625L10.25 47.5V48.375L9.625 49.25L9 49.625H7.875L7.25 49.25L6.75 48.5L6.625 47.75L7 46.875L7.75 46.25L8 46.125Z" fill="#00ABDF"/>
</svg>
